HIERARCHY
ROOT Hips
{
	OFFSET 0.00000 0.00000 0.00000
	CHANNELS 6 Xposition Yposition Zposition Zrotation Yrotation Xrotation 
	JOINT LHipJoint
	{
		OFFSET 0 0 0
		CHANNELS 3 Zrotation Yrotation Xrotation
		JOINT LeftUpLeg
		{
			OFFSET 1.37590 -1.78394 0.89329
			CHANNELS 3 Zrotation Yrotation Xrotation
			JOINT LeftLeg
			{
				OFFSET 2.47928 -6.81178 0.00000
				CHANNELS 3 Zrotation Yrotation Xrotation
				JOINT LeftFoot
				{
					OFFSET 2.63345 -7.23535 0.00000
					CHANNELS 3 Zrotation Yrotation Xrotation
					JOINT LeftToeBase
					{
						OFFSET 0.23938 -0.65768 2.27012
						CHANNELS 3 Zrotation Yrotation Xrotation
						End Site
						{
							OFFSET 0.00000 -0.00000 1.18363
						}
					}
				}
			}
		}
	}
	JOINT RHipJoint
	{
		OFFSET 0 0 0
		CHANNELS 3 Zrotation Yrotation Xrotation
		JOINT RightUpLeg
		{
			OFFSET -1.33617 -1.78394 0.89329
			CHANNELS 3 Zrotation Yrotation Xrotation
			JOINT RightLeg
			{
				OFFSET -2.56922 -7.05888 0.00000
				CHANNELS 3 Zrotation Yrotation Xrotation
				JOINT RightFoot
				{
					OFFSET -2.56568 -7.04915 0.00000
					CHANNELS 3 Zrotation Yrotation Xrotation
					JOINT RightToeBase
					{
						OFFSET -0.27533 -0.75646 2.18105
						CHANNELS 3 Zrotation Yrotation Xrotation
						End Site
						{
							OFFSET -0.00000 -0.00000 1.15233
						}
					}
				}
			}
		}
	}
	JOINT LowerBack
	{
		OFFSET 0 0 0
		CHANNELS 3 Zrotation Yrotation Xrotation
		JOINT Spine
		{
			OFFSET 0.06190 2.15152 -0.00935
			CHANNELS 3 Zrotation Yrotation Xrotation
			JOINT Spine1
			{
				OFFSET 0.06334 2.15332 0.00872
				CHANNELS 3 Zrotation Yrotation Xrotation
				JOINT Neck
				{
					OFFSET 0 0 0
					CHANNELS 3 Zrotation Yrotation Xrotation
					JOINT Neck1
					{
						OFFSET -0.04202 1.66908 0.23524
						CHANNELS 3 Zrotation Yrotation Xrotation
						JOINT Head
						{
							OFFSET 0.07510 1.69357 -0.24440
							CHANNELS 3 Zrotation Yrotation Xrotation
							End Site
							{
								OFFSET 0.02556 1.71719 -0.11000
							}
						}
					}
				}
				JOINT LeftShoulder
				{
					OFFSET 0 0 0
					CHANNELS 3 Zrotation Yrotation Xrotation
					JOINT LeftArm
					{
						OFFSET 3.67168 1.26306 -0.41342
						CHANNELS 3 Zrotation Yrotation Xrotation
						JOINT LeftForeArm
						{
							OFFSET 4.68510 -0.00000 -0.00000
							CHANNELS 3 Zrotation Yrotation Xrotation
							JOINT LeftHand
							{
								OFFSET 3.39626 -0.00000 -0.00000
								CHANNELS 3 Zrotation Yrotation Xrotation
								JOINT LeftFingerBase
								{
									OFFSET 0 0 0
									CHANNELS 3 Zrotation Yrotation Xrotation
									JOINT LeftHandIndex1
									{
										OFFSET 0.48608 -0.00000 -0.00000
										CHANNELS 3 Zrotation Yrotation Xrotation
										End Site
										{
											OFFSET 0.39189 -0.00000 -0.00000
										}
									}
								}
								JOINT LThumb
								{
									OFFSET 0 0 0
									CHANNELS 3 Zrotation Yrotation Xrotation
									End Site
									{
										OFFSET 0.39787 -0.00000 0.39787
									}
								}
							}
						}
					}
				}
				JOINT RightShoulder
				{
					OFFSET 0 0 0
					CHANNELS 3 Zrotation Yrotation Xrotation
					JOINT RightArm
					{
						OFFSET -3.04136 1.42992 -0.76390
						CHANNELS 3 Zrotation Yrotation Xrotation
						JOINT RightForeArm
						{
							OFFSET -5.55576 -0.00000 -0.00000
							CHANNELS 3 Zrotation Yrotation Xrotation
							JOINT RightHand
							{
								OFFSET -3.32774 -0.00000 -0.00000
								CHANNELS 3 Zrotation Yrotation Xrotation
								JOINT RightFingerBase
								{
									OFFSET 0 0 0
									CHANNELS 3 Zrotation Yrotation Xrotation
									JOINT RightHandIndex1
									{
										OFFSET -0.50763 -0.00000 -0.00000
										CHANNELS 3 Zrotation Yrotation Xrotation
										End Site
										{
											OFFSET -0.40926 -0.00000 -0.00000
										}
									}
								}
								JOINT RThumb
								{
									OFFSET 0 0 0
									CHANNELS 3 Zrotation Yrotation Xrotation
									End Site
									{
										OFFSET -0.41551 -0.00000 0.41551
									}
								}
							}
						}
					}
				}
			}
		}
	}
}
MOTION
Frames: 6
Frame Time: .0083333
29.5922 17.6258 4.8095 0 0 0 0 0 0 -21 0 0 0 0 0 0 0 0 0 0 0 0 0 0 21 0 0 0 0 0 0 0 0 0 0 0 0 0 0 0 0 0 0 0 0 0 0 -16 0 0 21 0 0 11 0 0 0 -8 0 0 0 0 0 0 0 0 0 0 0 0 0 0 0 0 0 0 0 0 8 0 0 0 0 0 0 0 0 0 0 0 0 0 0 0 0 0
29.5922 17.6258 4.8095 -75.1933 -88.0774 83.3675 0.0000 0.0000 0.0000 -18.2525 -5.7376 4.3734 2.0046 8.8757 25.4073 0.0734 -5.3932 -5.7272 3.1740 -10.9715 -32.1840 0.0000 0.0000 0.0000 17.1605 11.6111 -28.2949 -1.2337 -7.0439 19.8454 0.4213 -11.8889 -0.8236 -1.1549 -6.8232 19.1926 0.8541 -1.7627 -0.7121 6.0432 -2.4413 -1.7398 5.7817 -1.2588 -1.1623 -5.5679 -3.5956 -14.7310 4.7053 -4.3236 9.7565 1.9908 -1.9762 5.5723 -0.0000 -0.0000 0.0000 -94.8262 -5.6082 40.2148 16.4789 -26.1656 -3.8547 -0.0000 -0.0000 21.6485 15.3703 15.4711 4.1938 -7.1250 0.0000 -0.0000 -11.4953 45.6748 -0.1940 -0.0000 -0.0000 0.0000 84.2863 7.3091 -5.0072 -7.0045 11.9267 -0.7326 0.0000 0.0000 30.8602 -17.1345 -25.2231 7.4846 7.1250 -0.0000 -0.0000 13.5044 -55.7074 -3.5955
29.4414 17.6541 4.7789 -74.3508 -87.8388 82.5348 0.0000 0.0000 0.0000 -17.6432 -5.6417 3.5821 2.2592 9.3863 27.0112 0.0080 -5.5959 -4.1556 2.8550 -10.4565 -30.4679 0.0000 0.0000 0.0000 17.7121 11.4434 -27.6588 -1.2160 -6.9950 19.7005 0.4097 -11.6286 -1.1726 -1.1701 -6.8664 19.3202 1.8928 -1.8345 -0.4580 5.5089 -2.4949 -2.0698 4.6503 -1.2906 -1.7064 -4.8554 -3.4585 -14.2175 4.7921 -4.3294 9.9197 1.9087 -1.9539 5.5259 0.0000 0.0000 0.0000 -93.7583 -4.3577 39.5015 15.8204 -25.2766 -3.5689 -0.0000 -0.0000 22.3991 15.0119 15.2323 4.0303 -7.1250 0.0000 -0.0000 -11.7548 45.3908 -0.1150 0.0000 0.0000 0.0000 85.2261 6.4052 -8.3938 -6.7080 11.4377 -0.6725 0.0000 0.0000 33.8750 -17.3956 -24.9123 7.5179 7.1250 -0.0000 -0.0000 13.0810 -55.4520 -3.3983
29.2899 17.6818 4.7417 -72.1840 -87.6294 80.3604 0.0000 0.0000 0.0000 -17.0333 -5.5250 2.7179 2.5279 9.8884 28.6162 -0.0455 -5.6802 -2.4443 2.7555 -10.2883 -29.9154 0.0000 0.0000 0.0000 18.1922 11.5229 -26.8544 -1.1890 -6.9197 19.4776 0.4241 -11.7155 -1.6735 -1.1665 -6.8561 19.2898 1.9699 -1.8430 -0.5311 5.6505 -2.5127 -2.1140 4.7538 -1.3025 -1.7069 -4.8700 -3.4494 -14.3233 4.6879 -4.3023 10.1150 1.8789 -1.9465 5.6012 -0.0000 -0.0000 0.0000 -93.8017 -3.5548 38.9021 15.2832 -24.5391 -3.3427 -0.0000 -0.0000 23.3922 13.9689 15.6647 3.8425 -7.1250 0.0000 -0.0000 -12.8282 45.6957 -0.2240 -0.0000 -0.0000 0.0000 84.9587 5.9080 -10.9009 -6.5198 11.1263 -0.6357 0.0000 0.0000 35.7842 -17.5838 -25.2850 7.7086 7.1250 -0.0000 -0.0000 13.0737 -55.8593 -3.5264
29.1470 17.7027 4.7090 -69.3665 -87.3588 77.5521 0.0000 0.0000 0.0000 -16.3463 -5.4042 1.5814 2.8448 10.4394 30.4117 -0.0821 -5.6371 -0.5558 2.3664 -9.5909 -27.6618 0.0000 0.0000 0.0000 18.7122 11.3836 -26.1769 -1.1645 -6.8504 19.2728 0.4284 -11.6837 -2.1478 -1.1619 -6.8431 19.2515 2.1169 -1.8452 -0.6877 5.7975 -2.5293 -2.1237 4.8192 -1.3158 -1.6278 -4.9421 -3.4713 -14.3003 4.6253 -4.3124 10.1889 1.8698 -1.9588 5.6213 -0.0000 0.0000 0.0000 -93.9406 -3.1259 37.8352 14.4702 -23.4029 -3.0124 -0.0000 -0.0000 25.3163 13.6944 15.2213 3.6605 -7.1250 0.0000 -0.0000 -12.9464 45.2210 -0.0718 -0.0000 0.0000 0.0000 84.6398 5.2986 -11.8141 -6.5225 11.1307 -0.6362 0.0000 0.0000 36.1460 -17.4958 -25.3323 7.6812 7.1250 -0.0000 -0.0000 13.1881 -55.8883 -3.5674
29.0027 17.7244 4.6755 -67.6596 -87.0815 75.8362 0.0000 0.0000 0.0000 -15.6789 -5.3133 0.5680 3.1650 10.9576 32.1369 -0.0915 -5.3961 1.2806 2.0300 -8.9282 -25.5710 0.0000 0.0000 0.0000 19.2516 11.2966 -25.4636 -1.1402 -6.7810 19.0683 0.4322 -11.6649 -2.6138 -1.1621 -6.8435 19.2525 2.3762 -1.8527 -0.7485 5.8575 -2.5432 -2.1772 4.7352 -1.3283 -1.6565 -4.9007 -3.4751 -14.2465 4.5771 -4.3261 10.2985 1.8469 -1.9681 5.6455 -0.0000 0.0000 0.0000 -93.8877 -2.5280 36.8055 13.7791 -22.4180 -2.7433 -0.0000 -0.0000 26.9754 13.1692 14.9957 3.4646 -7.1250 0.0000 -0.0000 -13.3543 44.9347 0.0219 -0.0000 0.0000 0.0000 84.4899 4.6505 -13.1210 -6.4873 11.0725 -0.6295 0.0000 0.0000 36.9081 -17.4811 -25.3595 7.6820 7.1250 -0.0000 -0.0000 13.2170 -55.9123 -3.5831
